<?xml version="1.0" standalone="no"?>
<!DOCTYPE svg PUBLIC "-//W3C//DTD SVG 20010904//EN"
 "http://www.w3.org/TR/2001/REC-SVG-20010904/DTD/svg10.dtd">
<svg version="1.0" xmlns="http://www.w3.org/2000/svg"
 width="486.000000pt" height="447.000000pt" viewBox="0 0 486.000000 447.000000"
 preserveAspectRatio="xMidYMid meet">

<g transform="translate(0.000000,447.000000) scale(0.100000,-0.100000)"
fill="#000000" stroke="none">
<path d="M170 4325 c0 -8 31 -74 69 -147 38 -73 134 -261 213 -418 80 -157
196 -382 258 -500 62 -118 177 -343 256 -500 181 -359 320 -629 462 -896 61
-115 139 -265 175 -334 87 -172 79 -174 232 55 66 99 161 239 210 310 49 72
132 193 184 270 136 201 202 298 268 395 183 266 294 432 299 445 4 9 -4 19
-23 27 -15 7 -70 36 -122 66 -52 29 -133 73 -180 97 -47 25 -194 101 -326 170
-132 68 -427 219 -656 334 -228 115 -440 224 -470 241 -120 71 -796 400 -822
400 -17 0 -27 -5 -27 -15z"/>
<path d="M3642 3673 c-119 -108 -246 -224 -282 -257 -87 -81 -245 -225 -352
-320 l-88 -78 92 -177 c50 -97 169 -329 264 -516 94 -187 242 -477 328 -645
86 -168 156 -308 156 -312 0 -30 141 26 161 64 6 10 9 457 9 1150 0 1104 0
1134 20 1185 l19 52 -30 25 c-17 14 -41 26 -55 26 -17 0 -84 -55 -242 -197z"/>
<path d="M4006 3775 c5 -11 10 -181 12 -377 l3 -358 394 0 c217 0 395 4 395 9
0 17 -86 105 -194 197 -61 52 -124 108 -141 123 -16 15 -64 56 -105 90 -110
93 -215 186 -299 266 -41 38 -70 61 -65 50z"/>
<path d="M2735 2770 c-61 -89 -114 -167 -120 -173 -5 -7 -68 -99 -140 -206
-165 -246 -281 -417 -378 -556 -114 -164 -321 -475 -345 -517 -11 -21 -24 -66
-27 -100 -4 -35 -16 -135 -26 -223 -11 -88 -24 -196 -29 -240 -5 -44 -11 -87
-14 -95 -3 -8 -13 -80 -21 -160 -8 -80 -16 -162 -18 -183 -4 -37 -3 -38 22
-33 14 4 231 109 481 235 948 476 1555 783 1565 792 7 7 2 24 -13 52 -26 47
-223 432 -515 1007 -260 512 -283 555 -299 558 -8 2 -59 -63 -123 -158z"/>
<path d="M1509 1227 c-47 -34 -131 -97 -185 -140 -54 -43 -133 -104 -174 -135
-107 -80 -290 -224 -391 -306 -47 -39 -143 -116 -214 -171 -195 -152 -246
-195 -240 -206 4 -5 240 -9 603 -9 l598 0 16 27 c9 16 18 62 21 103 3 41 11
113 16 160 6 47 15 126 21 175 5 50 17 135 24 190 17 118 35 274 38 330 4 63
-28 59 -133 -18z"/>
</g>
</svg>
